<svg xmlns="http://www.w3.org/2000/svg" width="24" height="16" viewBox="0 0 24 16">
  <g id="star_-_desktop" data-name="star - desktop" transform="translate(-30 -64)">
    <path id="icon-star" d="M16.539,6.1a.3.3,0,0,0-.24-.2l-5.36-.779L8.542.26a.3.3,0,0,0-.53,0l-2.4,4.857L.253,5.9A.3.3,0,0,0,.088,6.4l3.88,3.78-.917,5.34a.3.3,0,0,0,.43.312l4.795-2.52,4.794,2.52a.3.3,0,0,0,.43-.313l-.916-5.338L16.464,6.4a.3.3,0,0,0,.075-.3Z" transform="translate(30 63.904)" fill="#ef9546"/>
    <rect id="Rectangle_1" data-name="Rectangle 1" width="24" height="16" transform="translate(30 64)" fill="none"/>
  </g>
</svg>
